<?xml version="1.0" standalone="no"?>
<!DOCTYPE svg PUBLIC "-//W3C//DTD SVG 1.0//EN" "http://www.w3.org/TR/2001/REC-SVG-20010904/DTD/svg10.dtd">
<svg xmlns="http://www.w3.org/2000/svg" xmlns:xlink="http://www.w3.org/1999/xlink" id="body_-778311710_31656" width="4763.5205078125" height="6733.43994140625">

<g transform="matrix(146.43850359752966 0 0 -146.43850359752966 -426.93028978385371 4491.3676531943165)" >
    <g>
            <path d="M3 0.23999999999999999L3 0.23999999999999999L3 0L3 0L3 0.23999999999999999M3 0L3 0L11 0L11 0L3 0M11 0L11 0L11 0.23999999999999999L11 0.23999999999999999L11 0M11 0.23999999999999999L11 0.23999999999999999L3 0.23999999999999999L3 0.23999999999999999L11 0.23999999999999999" stroke="#DEB887" stroke-width="0.0032529152121664666" stroke-miterlimit="10" fill="none" />
            <path d="M3 2.5L3 2.5L11 2.5L11 2.5L3 2.5M11 2.5L11 2.5L11 2.8199999999999998L11 2.8199999999999998L11 2.5M11 2.8199999999999998L11 2.8199999999999998L3 2.8199999999999998L3 2.8199999999999998L11 2.8199999999999998M3 2.8199999999999998L3 2.8199999999999998L3 2.5L3 2.5L3 2.8199999999999998" stroke="#DEB887" stroke-width="0.0032529152121664666" stroke-miterlimit="10" fill="none" />
            <path d="M3 5L3 5L11 5L11 5L3 5M11 5L11 5L11 5.4350000000000005L11 5.4350000000000005L11 5M11 5.4350000000000005L11 5.4350000000000005L3 5.4350000000000005L3 5.4350000000000005L11 5.4350000000000005M3 5.4350000000000005L3 5.4350000000000005L3 5L3 5L3 5.4350000000000005" stroke="#DEB887" stroke-width="0.0032529152121664666" stroke-miterlimit="10" fill="none" />
            <path d="M3 7.2600000000000007L3 7.2600000000000007L11 7.2600000000000007L11 7.2600000000000007L3 7.2600000000000007M11 7.2600000000000007L11 7.2600000000000007L11 7.6950000000000012L11 7.6950000000000012L11 7.2600000000000007M11 7.6950000000000012L11 7.6950000000000012L3 7.6950000000000012L3 7.6950000000000012L11 7.6950000000000012M3 7.6950000000000012L3 7.6950000000000012L3 7.2600000000000007L3 7.2600000000000007L3 7.6950000000000012" stroke="#DEB887" stroke-width="0.0032529152121664666" stroke-miterlimit="10" fill="none" />
            <path d="M3 9.5649999999999995L3 9.5649999999999995L11 9.5649999999999995L11 9.5649999999999995L3 9.5649999999999995M11 9.5649999999999995L11 9.5649999999999995L11 10L11 10L11 9.5649999999999995M11 10L11 10L3 10L3 10L11 10M3 10L3 10L3 9.5649999999999995L3 9.5649999999999995L3 10" stroke="#DEB887" stroke-width="0.0032529152121664666" stroke-miterlimit="10" fill="none" />
            <path d="M3 12.16L3 12.16L11 12.16L11 12.16L3 12.16M11 12.16L11 12.16L11 12.640000000000001L11 12.640000000000001L11 12.16M11 12.640000000000001L11 12.640000000000001L3 12.640000000000001L3 12.640000000000001L11 12.640000000000001M3 12.640000000000001L3 12.640000000000001L3 12.16L3 12.16L3 12.640000000000001" stroke="#DEB887" stroke-width="0.0032529152121664666" stroke-miterlimit="10" fill="none" />
            <path d="M11 15.359999999999999L11 15.359999999999999L3 15.359999999999999L3 15.359999999999999L11 15.359999999999999M3 15.359999999999999L3 15.359999999999999L3 14.859999999999999L3 14.859999999999999L3 15.359999999999999M3 14.859999999999999L3 14.859999999999999L11 14.859999999999999L11 14.859999999999999L3 14.859999999999999M11 14.859999999999999L11 14.859999999999999L11 15.359999999999999L11 15.359999999999999L11 14.859999999999999" stroke="#DEB887" stroke-width="0.0032529152121664666" stroke-miterlimit="10" fill="none" />
            <path d="M20 5.1999999999999993L20 5.1999999999999993L20 5L20 5L20 5.1999999999999993M25 -8.4106983530563006E-17L25 -8.4106983530563006E-17L24.968560934066772 0.55982239544391621L24.968560934066772 0.55982239544391621L25 -8.4106983530563006E-17M24.968560934066772 0.55982239544391621L24.968560934066772 0.55982239544391621L24.874639511108398 1.1126046627759933L24.874639511108398 1.1126046627759933L24.968560934066772 0.55982239544391621M24.874639511108398 1.1126046627759933L24.874639511108398 1.1126046627759933L24.719416797161102 1.6513952612876892L24.719416797161102 1.6513952612876892L24.874639511108398 1.1126046627759933M24.719416797161102 1.6513952612876892L24.719416797161102 1.6513952612876892L24.50484424829483 2.1694186329841614L24.50484424829483 2.1694186329841614L24.719416797161102 1.6513952612876892M24.50484424829483 2.1694186329841614L24.50484424829483 2.1694186329841614L24.233621060848236 2.6601603627204895L24.233621060848236 2.6601603627204895L24.50484424829483 2.1694186329841614M24.233621060848236 2.6601603627204895L24.233621060848236 2.6601603627204895L23.909157514572144 3.1174489855766296L23.909157514572144 3.1174489855766296L24.233621060848236 2.6601603627204895M23.909157514572144 3.1174489855766296L23.909157514572144 3.1174489855766296L23.535533845424652 3.5355338454246521L23.535533845424652 3.5355338454246521L23.909157514572144 3.1174489855766296M23.535533845424652 3.5355338454246521L23.535533845424652 3.5355338454246521L23.11744898557663 3.9091575145721436L23.11744898557663 3.9091575145721436L23.535533845424652 3.5355338454246521M23.11744898557663 3.9091575145721436L23.11744898557663 3.9091575145721436L22.66016036272049 4.2336210608482361L22.66016036272049 4.2336210608482361L23.11744898557663 3.9091575145721436M22.66016036272049 4.2336210608482361L22.66016036272049 4.2336210608482361L22.169418632984161 4.5048442482948303L22.169418632984161 4.5048442482948303L22.66016036272049 4.2336210608482361M22.169418632984161 4.5048442482948303L22.169418632984161 4.5048442482948303L21.651395261287689 4.7194167971611023L21.651395261287689 4.7194167971611023L22.169418632984161 4.5048442482948303M21.651395261287689 4.7194167971611023L21.651395261287689 4.7194167971611023L21.112604662775993 4.8746395111083984L21.112604662775993 4.8746395111083984L21.651395261287689 4.7194167971611023M21.112604662775993 4.8746395111083984L21.112604662775993 4.8746395111083984L20.559822395443916 4.9685609340667725L20.559822395443916 4.9685609340667725L21.112604662775993 4.8746395111083984M20.559822395443916 4.9685609340667725L20.559822395443916 4.9685609340667725L20 5L20 5L20.559822395443916 4.9685609340667725M25 5.2819619338062562E-16L25 5.2819619338062562E-16L25.199999999999999 5.4044225691884938E-16L25.199999999999999 5.4044225691884938E-16L25 5.2819619338062562E-16M25.199999999999999 -9.6353047068786735E-17L25.199999999999999 -9.6353047068786735E-17L25.167303371429444 0.58221529126167282L25.167303371429444 0.58221529126167282L25.199999999999999 -9.6353047068786735E-17M25.167303371429444 0.58221529126167282L25.167303371429444 0.58221529126167282L25.069625091552734 1.1571088492870329L25.069625091552734 1.1571088492870329L25.167303371429444 0.58221529126167282M25.069625091552734 1.1571088492870329L25.069625091552734 1.1571088492870329L24.908193469047546 1.7174510717391966L24.908193469047546 1.7174510717391966L25.069625091552734 1.1571088492870329M24.908193469047546 1.7174510717391966L24.908193469047546 1.7174510717391966L24.685038018226624 2.2561953783035276L24.685038018226624 2.2561953783035276L24.908193469047546 1.7174510717391966M24.685038018226624 2.2561953783035276L24.685038018226624 2.2561953783035276L24.402965903282166 2.7665667772293085L24.402965903282166 2.7665667772293085L24.685038018226624 2.2561953783035276M24.402965903282166 2.7665667772293085L24.402965903282166 2.7665667772293085L24.065523815155029 3.2421469449996945L24.065523815155029 3.2421469449996945L24.402965903282166 2.7665667772293085M24.065523815155029 3.2421469449996945L24.065523815155029 3.2421469449996945L23.67695519924164 3.6769551992416378L23.67695519924164 3.6769551992416378L24.065523815155029 3.2421469449996945M23.67695519924164 3.6769551992416378L23.67695519924164 3.6769551992416378L23.242146944999696 4.0655238151550286L23.242146944999696 4.0655238151550286L23.67695519924164 3.6769551992416378M23.242146944999696 4.0655238151550286L23.242146944999696 4.0655238151550286L22.766566777229308 4.4029659032821646L22.766566777229308 4.4029659032821646L23.242146944999696 4.0655238151550286M22.766566777229308 4.4029659032821646L22.766566777229308 4.4029659032821646L22.256195378303527 4.6850380182266225L22.256195378303527 4.6850380182266225L22.766566777229308 4.4029659032821646M22.256195378303527 4.6850380182266225L22.256195378303527 4.6850380182266225L21.717451071739198 4.9081934690475455L21.717451071739198 4.9081934690475455L22.256195378303527 4.6850380182266225M21.717451071739198 4.9081934690475455L21.717451071739198 4.9081934690475455L21.157108849287035 5.0696250915527337L21.157108849287035 5.0696250915527337L21.717451071739198 4.9081934690475455M21.157108849287035 5.0696250915527337L21.157108849287035 5.0696250915527337L20.582215291261672 5.1673033714294423L20.582215291261672 5.1673033714294423L21.157108849287035 5.0696250915527337M20.582215291261672 5.1673033714294423L20.582215291261672 5.1673033714294423L20 5.1999999999999993L20 5.1999999999999993L20.582215291261672 5.1673033714294423" stroke="#DEB887" stroke-width="0.0032529152121664666" stroke-miterlimit="10" fill="none" />
            <path d="M27.18 3.9910280664792023E-16L27.18 3.9910280664792023E-16L27.134853501319885 0.80390495985746402L27.134853501319885 0.80390495985746402L27.18 3.9910280664792023E-16M27.134853501319885 0.80390495985746402L27.134853501319885 0.80390495985746402L26.999982337951657 1.5977002957463264L26.999982337951657 1.5977002957463264L27.134853501319885 0.80390495985746402M26.999982337951657 1.5977002957463264L26.999982337951657 1.5977002957463264L26.77708252072334 2.3714035952091215L26.77708252072334 2.3714035952091215L26.999982337951657 1.5977002957463264M26.77708252072334 2.3714035952091215L26.77708252072334 2.3714035952091215L26.468956340551376 3.1152851569652555L26.468956340551376 3.1152851569652555L26.77708252072334 2.3714035952091215M26.468956340551376 3.1152851569652555L26.468956340551376 3.1152851569652555L26.079479843378067 3.8199902808666226L26.079479843378067 3.8199902808666226L26.468956340551376 3.1152851569652555M26.079479843378067 3.8199902808666226L26.079479843378067 3.8199902808666226L25.613550190925597 4.4766567432880402L25.613550190925597 4.4766567432880402L26.079479843378067 3.8199902808666226M25.613550190925597 4.4766567432880402L25.613550190925597 4.4766567432880402L25.0770266020298 5.0770266020298003L25.0770266020298 5.0770266020298003L25.613550190925597 4.4766567432880402M25.0770266020298 5.0770266020298003L25.0770266020298 5.0770266020298003L24.476656743288039 5.6135501909255971L24.476656743288039 5.6135501909255971L25.0770266020298 5.0770266020298003M24.476656743288039 5.6135501909255971L24.476656743288039 5.6135501909255971L23.819990280866623 6.0794798433780661L23.819990280866623 6.0794798433780661L24.476656743288039 5.6135501909255971M23.819990280866623 6.0794798433780661L23.819990280866623 6.0794798433780661L23.115285156965257 6.468956340551375L23.115285156965257 6.468956340551375L23.819990280866623 6.0794798433780661M23.115285156965257 6.468956340551375L23.115285156965257 6.468956340551375L22.371403595209124 6.7770825207233418L22.371403595209124 6.7770825207233418L23.115285156965257 6.468956340551375M22.371403595209124 6.7770825207233418L22.371403595209124 6.7770825207233418L21.597700295746328 6.9999823379516597L21.597700295746328 6.9999823379516597L22.371403595209124 6.7770825207233418M21.597700295746328 6.9999823379516597L21.597700295746328 6.9999823379516597L20.803904959857466 7.1348535013198848L20.803904959857466 7.1348535013198848L21.597700295746328 6.9999823379516597M20.803904959857466 7.1348535013198848L20.803904959857466 7.1348535013198848L20 7.1799999999999997L20 7.1799999999999997L20.803904959857466 7.1348535013198848M27.179999999999996 1.2783701686923868E-15L27.179999999999996 1.2783701686923868E-15L27.5 1.2363834999210028E-15L27.5 1.2363834999210028E-15L27.179999999999996 1.2783701686923868E-15M27.5 3.1792873455422013E-16L27.5 3.1792873455422013E-16L27.452841401100159 0.83973359316587459L27.452841401100159 0.83973359316587459L27.5 3.1792873455422013E-16M27.452841401100159 0.83973359316587459L27.452841401100159 0.83973359316587459L27.311959266662598 1.6689069941639898L27.311959266662598 1.6689069941639898L27.452841401100159 0.83973359316587459M27.311959266662598 1.6689069941639898L27.311959266662598 1.6689069941639898L27.079125195741653 2.4770928919315338L27.079125195741653 2.4770928919315338L27.311959266662598 1.6689069941639898M27.079125195741653 2.4770928919315338L27.079125195741653 2.4770928919315338L26.757266372442245 3.2541279494762416L26.757266372442245 3.2541279494762416L27.079125195741653 2.4770928919315338M26.757266372442245 3.2541279494762416L26.757266372442245 3.2541279494762416L26.350431591272354 3.9902405440807343L26.350431591272354 3.9902405440807343L26.757266372442245 3.2541279494762416M26.350431591272354 3.9902405440807343L26.350431591272354 3.9902405440807343L25.863736271858215 4.6761734783649436L25.863736271858215 4.6761734783649436L26.350431591272354 3.9902405440807343M25.863736271858215 4.6761734783649436L25.863736271858215 4.6761734783649436L25.303300768136978 5.3033007681369781L25.303300768136978 5.3033007681369781L25.863736271858215 4.6761734783649436M25.303300768136978 5.3033007681369781L25.303300768136978 5.3033007681369781L24.676173478364944 5.8637362718582144L24.676173478364944 5.8637362718582144L25.303300768136978 5.3033007681369781M24.676173478364944 5.8637362718582144L24.676173478364944 5.8637362718582144L23.990240544080734 6.3504315912723532L23.990240544080734 6.3504315912723532L24.676173478364944 5.8637362718582144M23.990240544080734 6.3504315912723532L23.990240544080734 6.3504315912723532L23.254127949476242 6.7572663724422446L23.254127949476242 6.7572663724422446L23.990240544080734 6.3504315912723532M23.254127949476242 6.7572663724422446L23.254127949476242 6.7572663724422446L22.477092891931534 7.0791251957416526L22.477092891931534 7.0791251957416526L23.254127949476242 6.7572663724422446M22.477092891931534 7.0791251957416526L22.477092891931534 7.0791251957416526L21.66890699416399 7.3119592666625977L21.66890699416399 7.3119592666625977L22.477092891931534 7.0791251957416526M21.66890699416399 7.3119592666625977L21.66890699416399 7.3119592666625977L20.839733593165874 7.4528414011001587L20.839733593165874 7.4528414011001587L21.66890699416399 7.3119592666625977M20.839733593165874 7.4528414011001587L20.839733593165874 7.4528414011001587L20 7.5L20 7.5L20.839733593165874 7.4528414011001587M19.999999999999996 7.5L19.999999999999996 7.5L19.999999999999996 7.1799999999999997L19.999999999999996 7.1799999999999997L19.999999999999996 7.5" stroke="#DEB887" stroke-width="0.0032529152121664666" stroke-miterlimit="10" fill="none" />
            <path d="M29.782500000000002 -1.9119353317350807E-15L29.782500000000002 -1.9119353317350807E-15L29.720989467501642 1.0952925166860206L29.720989467501642 1.0952925166860206L29.782500000000002 -1.9119353317350807E-15M29.720989467501642 1.0952925166860206L29.720989467501642 1.0952925166860206L29.537232203483583 2.1768110227212296L29.537232203483583 2.1768110227212296L29.720989467501642 1.0952925166860206M29.537232203483583 2.1768110227212296L29.537232203483583 2.1768110227212296L29.233538963645699 3.230954828709363L29.233538963645699 3.230954828709363L29.537232203483583 2.1768110227212296M29.233538963645699 3.230954828709363L29.233538963645699 3.230954828709363L28.813727771788837 4.244467555433511L28.813727771788837 4.244467555433511L29.233538963645699 3.230954828709363M28.813727771788837 4.244467555433511L28.813727771788837 4.244467555433511L28.283079605549577 5.2046037496626374L28.283079605549577 5.2046037496626374L28.813727771788837 4.244467555433511M28.283079605549577 5.2046037496626374L28.283079605549577 5.2046037496626374L27.648266677260402 6.099288940280676L27.648266677260402 6.099288940280676L28.283079605549577 5.2046037496626374M27.648266677260402 6.099288940280676L27.648266677260402 6.099288940280676L26.917271968573335 6.917271968573333L26.917271968573335 6.917271968573333L27.648266677260402 6.099288940280676M26.917271968573335 6.917271968573333L26.917271968573335 6.917271968573333L26.09928894028068 7.6482666772604002L26.09928894028068 7.6482666772604002L26.917271968573335 6.917271968573333M26.09928894028068 7.6482666772604002L26.09928894028068 7.6482666772604002L25.204603749662638 8.2830796055495739L25.204603749662638 8.2830796055495739L26.09928894028068 7.6482666772604002M25.204603749662638 8.2830796055495739L25.204603749662638 8.2830796055495739L24.244467555433513 8.8137277717888356L24.244467555433513 8.8137277717888356L25.204603749662638 8.2830796055495739M24.244467555433513 8.8137277717888356L24.244467555433513 8.8137277717888356L23.230954828709365 9.2335389636456995L23.230954828709365 9.2335389636456995L24.244467555433513 8.8137277717888356M23.230954828709365 9.2335389636456995L23.230954828709365 9.2335389636456995L22.176811022721232 9.5372322034835832L22.176811022721232 9.5372322034835832L23.230954828709365 9.2335389636456995M22.176811022721232 9.5372322034835832L22.176811022721232 9.5372322034835832L21.095292516686023 9.7209894675016422L21.095292516686023 9.7209894675016422L22.176811022721232 9.5372322034835832M21.095292516686023 9.7209894675016422L21.095292516686023 9.7209894675016422L20 9.7825000000000024L20 9.7825000000000024L21.095292516686023 9.7209894675016422M29.782500000000002 -7.1396416610834021E-16L29.782500000000002 -7.1396416610834021E-16L30.217500000000001 -7.2596473916965823E-16L30.217500000000001 -7.2596473916965823E-16L29.782500000000002 -7.1396416610834021E-16M30.217499999999998 -1.9772062811876722E-15L30.217499999999998 -1.9772062811876722E-15L30.153254268765448 1.1439970650896407L30.153254268765448 1.1439970650896407L30.217499999999998 -1.9772062811876722E-15M30.153254268765448 1.1439970650896407L30.153254268765448 1.1439970650896407L29.961325840950011 2.2736076283827402L29.961325840950011 2.2736076283827402L30.153254268765448 1.1439970650896407M29.961325840950011 2.2736076283827402L29.961325840950011 2.2736076283827402L29.64412822499871 3.3746262164413903L29.64412822499871 3.3746262164413903L29.961325840950011 2.2736076283827402M29.64412822499871 3.3746262164413903L29.64412822499871 3.3746262164413903L29.205649221390484 4.433206976503131L29.205649221390484 4.433206976503131L29.64412822499871 3.3746262164413903M29.205649221390484 4.433206976503131L29.205649221390484 4.433206976503131L28.65140463784337 5.4360377012193171L28.65140463784337 5.4360377012193171L29.205649221390484 4.433206976503131M28.65140463784337 5.4360377012193171L28.65140463784337 5.4360377012193171L27.988363381028176 6.3705070020258399L27.988363381028176 6.3705070020258399L28.65140463784337 5.4360377012193171M27.988363381028176 6.3705070020258399L27.988363381028176 6.3705070020258399L27.224863413125277 7.2248634131252736L27.224863413125277 7.2248634131252736L27.988363381028176 6.3705070020258399M27.224863413125277 7.2248634131252736L27.224863413125277 7.2248634131252736L26.370507002025843 7.9883633810281731L26.370507002025843 7.9883633810281731L27.224863413125277 7.2248634131252736M26.370507002025843 7.9883633810281731L26.370507002025843 7.9883633810281731L25.43603770121932 8.6514046378433669L25.43603770121932 8.6514046378433669L26.370507002025843 7.9883633810281731M25.43603770121932 8.6514046378433669L25.43603770121932 8.6514046378433669L24.433206976503136 9.2056492213904821L24.433206976503136 9.2056492213904821L25.43603770121932 8.6514046378433669M24.433206976503136 9.2056492213904821L24.433206976503136 9.2056492213904821L23.374626216441392 9.6441282249987097L23.374626216441392 9.6441282249987097L24.433206976503136 9.2056492213904821M23.374626216441392 9.6441282249987097L23.374626216441392 9.6441282249987097L22.273607628382742 9.9613258409500105L22.273607628382742 9.9613258409500105L23.374626216441392 9.6441282249987097M22.273607628382742 9.9613258409500105L22.273607628382742 9.9613258409500105L21.143997065089643 10.153254268765448L21.143997065089643 10.153254268765448L22.273607628382742 9.9613258409500105M21.143997065089643 10.153254268765448L21.143997065089643 10.153254268765448L20 10.217499999999998L20 10.217499999999998L21.143997065089643 10.153254268765448M19.999999999999993 10.217499999999999L19.999999999999993 10.217499999999999L19.999999999999993 9.7825000000000024L19.999999999999993 9.7825000000000024L19.999999999999993 10.217499999999999" stroke="#DEB887" stroke-width="0.0032529152121664666" stroke-miterlimit="10" fill="none" />
            <path d="M32.159999999999997 -6.1239971427262716E-16L32.159999999999997 -6.1239971427262716E-16L32.083540191650393 1.3614880657196038L32.083540191650393 1.3614880657196038L32.159999999999997 -6.1239971427262716E-16M32.083540191650393 1.3614880657196038L32.083540191650393 1.3614880657196038L31.855123291015627 2.7058545398712153L31.855123291015627 2.7058545398712153L32.083540191650393 1.3614880657196038M31.855123291015627 2.7058545398712153L31.855123291015627 2.7058545398712153L31.477621650695802 4.0161932754516592L31.477621650695802 4.0161932754516592L31.855123291015627 2.7058545398712153M31.477621650695802 4.0161932754516592L31.477621650695802 4.0161932754516592L30.955781211853029 5.2760261154174799L30.955781211853029 5.2760261154174799L31.477621650695802 4.0161932754516592M30.955781211853029 5.2760261154174799L30.955781211853029 5.2760261154174799L30.29616641998291 6.4695100021362295L30.29616641998291 6.4695100021362295L30.955781211853029 5.2760261154174799M30.29616641998291 6.4695100021362295L30.29616641998291 6.4695100021362295L29.507071075439455 7.5816359329223628L29.507071075439455 7.5816359329223628L30.29616641998291 6.4695100021362295M29.507071075439455 7.5816359329223628L29.507071075439455 7.5816359329223628L28.598418312072756 8.598418312072754L28.598418312072756 8.598418312072754L29.507071075439455 7.5816359329223628M28.598418312072756 8.598418312072754L28.598418312072756 8.598418312072754L27.581635932922364 9.5070710754394536L27.581635932922364 9.5070710754394536L28.598418312072756 8.598418312072754M27.581635932922364 9.5070710754394536L27.581635932922364 9.5070710754394536L26.469510002136232 10.29616641998291L26.469510002136232 10.29616641998291L27.581635932922364 9.5070710754394536M26.469510002136232 10.29616641998291L26.469510002136232 10.29616641998291L25.276026115417483 10.955781211853029L25.276026115417483 10.955781211853029L26.469510002136232 10.29616641998291M25.276026115417483 10.955781211853029L25.276026115417483 10.955781211853029L24.016193275451663 11.477621650695802L24.016193275451663 11.477621650695802L25.276026115417483 10.955781211853029M24.016193275451663 11.477621650695802L24.016193275451663 11.477621650695802L22.705854539871218 11.855123291015627L22.705854539871218 11.855123291015627L24.016193275451663 11.477621650695802M22.705854539871218 11.855123291015627L22.705854539871218 11.855123291015627L21.361488065719605 12.083540191650393L21.361488065719605 12.083540191650393L22.705854539871218 11.855123291015627M21.361488065719605 12.083540191650393L21.361488065719605 12.083540191650393L20.000000000000007 12.160000000000002L20.000000000000007 12.160000000000002L21.361488065719605 12.083540191650393M32.159999999999997 8.7672161197538293E-16L32.159999999999997 8.7672161197538293E-16L32.640000000000001 8.7626936956519649E-16L32.640000000000001 8.7626936956519649E-16L32.159999999999997 8.7672161197538293E-16M32.640000000000001 -6.7163306166628848E-16L32.640000000000001 -6.7163306166628848E-16L32.560522041320802 1.4152310156822199L32.560522041320802 1.4152310156822199L32.640000000000001 -6.7163306166628848E-16M32.560522041320802 1.4152310156822199L32.560522041320802 1.4152310156822199L32.32308868408203 2.8126645874977108L32.32308868408203 2.8126645874977108L32.560522041320802 1.4152310156822199M32.32308868408203 2.8126645874977108L32.32308868408203 2.8126645874977108L31.930685663223269 4.1747272205352779L31.930685663223269 4.1747272205352779L32.32308868408203 2.8126645874977108M31.930685663223269 4.1747272205352779L31.930685663223269 4.1747272205352779L31.388246259689332 5.4842903041839595L31.388246259689332 5.4842903041839595L31.930685663223269 4.1747272205352779M31.388246259689332 5.4842903041839595L31.388246259689332 5.4842903041839595L30.702594041824341 6.7248853969573972L30.702594041824341 6.7248853969573972L31.388246259689332 5.4842903041839595M30.702594041824341 6.7248853969573972L30.702594041824341 6.7248853969573972L29.882350196838381 7.8809110355377188L29.882350196838381 7.8809110355377188L30.702594041824341 6.7248853969573972M29.882350196838381 7.8809110355377188L29.882350196838381 7.8809110355377188L28.937829561233521 8.9378295612335208L28.937829561233521 8.9378295612335208L29.882350196838381 7.8809110355377188M28.937829561233521 8.9378295612335208L28.937829561233521 8.9378295612335208L27.880911035537721 9.8823501968383791L27.880911035537721 9.8823501968383791L28.937829561233521 8.9378295612335208M27.880911035537721 9.8823501968383791L27.880911035537721 9.8823501968383791L26.724885396957397 10.702594041824341L26.724885396957397 10.702594041824341L27.880911035537721 9.8823501968383791M26.724885396957397 10.702594041824341L26.724885396957397 10.702594041824341L25.484290304183961 11.388246259689332L25.484290304183961 11.388246259689332L26.724885396957397 10.702594041824341M25.484290304183961 11.388246259689332L25.484290304183961 11.388246259689332L24.174727220535281 11.930685663223269L24.174727220535281 11.930685663223269L25.484290304183961 11.388246259689332M24.174727220535281 11.930685663223269L24.174727220535281 11.930685663223269L22.812664587497714 12.323088684082034L22.812664587497714 12.323088684082034L24.174727220535281 11.930685663223269M22.812664587497714 12.323088684082034L22.812664587497714 12.323088684082034L21.415231015682224 12.560522041320803L21.415231015682224 12.560522041320803L22.812664587497714 12.323088684082034M21.415231015682224 12.560522041320803L21.415231015682224 12.560522041320803L20.000000000000007 12.640000000000002L20.000000000000007 12.640000000000002L21.415231015682224 12.560522041320803M20 12.640000000000002L20 12.640000000000002L20 12.160000000000002L20 12.160000000000002L20 12.640000000000002" stroke="#DEB887" stroke-width="0.0032529152121664666" stroke-miterlimit="10" fill="none" />
            <path d="M35.359999999999999 1.3471890270011502E-14L35.359999999999999 1.3471890270011502E-14L35.263419189453124 1.7197743988037233L35.263419189453124 1.7197743988037233L35.359999999999999 1.3471890270011502E-14M35.263419189453124 1.7197743988037233L35.263419189453124 1.7197743988037233L34.974892578125001 3.4179215240478626L34.974892578125001 3.4179215240478626L35.263419189453124 1.7197743988037233M34.974892578125001 3.4179215240478626L34.974892578125001 3.4179215240478626L34.498048400878908 5.0730862426757914L34.498048400878908 5.0730862426757914L34.974892578125001 3.4179215240478626M34.498048400878908 5.0730862426757914L34.498048400878908 5.0730862426757914L33.838881530761718 6.6644540405273522L33.838881530761718 6.6644540405273522L34.498048400878908 5.0730862426757914M33.838881530761718 6.6644540405273522L33.838881530761718 6.6644540405273522L33.005683898925781 8.1720126342773529L33.005683898925781 8.1720126342773529L33.838881530761718 6.6644540405273522M33.005683898925781 8.1720126342773529L33.005683898925781 8.1720126342773529L32.008931884765623 9.5768032836914134L32.008931884765623 9.5768032836914134L33.005683898925781 8.1720126342773529M32.008931884765623 9.5768032836914134L32.008931884765623 9.5768032836914134L30.861159973144531 10.861159973144536L30.861159973144531 10.861159973144536L32.008931884765623 9.5768032836914134M30.861159973144531 10.861159973144536L30.861159973144531 10.861159973144536L29.576803283691405 12.00893188476563L29.576803283691405 12.00893188476563L30.861159973144531 10.861159973144536M29.576803283691405 12.00893188476563L29.576803283691405 12.00893188476563L28.172012634277344 13.005683898925783L28.172012634277344 13.005683898925783L29.576803283691405 12.00893188476563M28.172012634277344 13.005683898925783L28.172012634277344 13.005683898925783L26.664454040527346 13.838881530761721L26.664454040527346 13.838881530761721L28.172012634277344 13.005683898925783M26.664454040527346 13.838881530761721L26.664454040527346 13.838881530761721L25.073086242675785 14.498048400878908L25.073086242675785 14.498048400878908L26.664454040527346 13.838881530761721M25.073086242675785 14.498048400878908L25.073086242675785 14.498048400878908L23.417921524047856 14.974892578124999L23.417921524047856 14.974892578124999L25.073086242675785 14.498048400878908M23.417921524047856 14.974892578124999L23.417921524047856 14.974892578124999L21.719774398803715 15.263419189453124L21.719774398803715 15.263419189453124L23.417921524047856 14.974892578124999M21.719774398803715 15.263419189453124L21.719774398803715 15.263419189453124L20 15.359999999999998L20 15.359999999999998L21.719774398803715 15.263419189453124M19.999999999999993 15.359999999999998L19.999999999999993 15.359999999999998L19.999999999999993 14.859999999999998L19.999999999999993 14.859999999999998L19.999999999999993 15.359999999999998M34.859999999999999 1.3264648638748139E-14L34.859999999999999 1.3264648638748139E-14L34.766563096046447 1.6637921592593317L34.766563096046447 1.6637921592593317L34.859999999999999 1.3264648638748139E-14M34.766563096046447 1.6637921592593317L34.766563096046447 1.6637921592593317L34.487428627014161 3.3066610577702633L34.487428627014161 3.3066610577702633L34.766563096046447 1.6637921592593317M34.487428627014161 3.3066610577702633L34.487428627014161 3.3066610577702633L34.026106721162797 4.9079467165470225L34.026106721162797 4.9079467165470225L34.487428627014161 3.3066610577702633M34.026106721162797 4.9079467165470225L34.026106721162797 4.9079467165470225L33.388397105932235 6.4475121772289361L33.388397105932235 6.4475121772289361L34.026106721162797 4.9079467165470225M33.388397105932235 6.4475121772289361L33.388397105932235 6.4475121772289361L32.582321792840958 7.9059965980053022L32.582321792840958 7.9059965980053022L33.388397105932235 6.4475121772289361M32.582321792840958 7.9059965980053022L32.582321792840958 7.9059965980053022L31.618016133308409 9.2650583851337505L31.618016133308409 9.2650583851337505L32.582321792840958 7.9059965980053022M31.618016133308409 9.2650583851337505L31.618016133308409 9.2650583851337505L30.507606588602066 10.507606588602071L30.507606588602066 10.507606588602071L31.618016133308409 9.2650583851337505M30.507606588602066 10.507606588602071L30.507606588602066 10.507606588602071L29.265058385133745 11.618016133308416L29.265058385133745 11.618016133308416L30.507606588602066 10.507606588602071M29.265058385133745 11.618016133308416L29.265058385133745 11.618016133308416L27.905996598005295 12.582321792840959L27.905996598005295 12.582321792840959L29.265058385133745 11.618016133308416M27.905996598005295 12.582321792840959L27.905996598005295 12.582321792840959L26.44751217722893 13.388397105932238L26.44751217722893 13.388397105932238L27.905996598005295 12.582321792840959M26.44751217722893 13.388397105932238L26.44751217722893 13.388397105932238L24.907946716547016 14.026106721162797L24.907946716547016 14.026106721162797L26.44751217722893 13.388397105932238M24.907946716547016 14.026106721162797L24.907946716547016 14.026106721162797L23.306661057770256 14.487428627014159L23.306661057770256 14.487428627014159L24.907946716547016 14.026106721162797M23.306661057770256 14.487428627014159L23.306661057770256 14.487428627014159L21.663792159259323 14.766563096046447L21.663792159259323 14.766563096046447L23.306661057770256 14.487428627014159M21.663792159259323 14.766563096046447L21.663792159259323 14.766563096046447L20.000000000000004 14.859999999999998L20.000000000000004 14.859999999999998L21.663792159259323 14.766563096046447M34.859999999999999 1.3264648638748139E-14L34.859999999999999 1.3264648638748139E-14L35.359999999999999 1.34718902700115E-14L35.359999999999999 1.34718902700115E-14L34.859999999999999 1.3264648638748139E-14" stroke="#DEB887" stroke-width="0.0032529152121664666" stroke-miterlimit="10" fill="none" />
    </g>
</g>
</svg>